<?xml version="1.0" standalone="no"?>
<!DOCTYPE svg PUBLIC "-//W3C//DTD SVG 20010904//EN"
 "http://www.w3.org/TR/2001/REC-SVG-20010904/DTD/svg10.dtd">
<svg version="1.0" xmlns="http://www.w3.org/2000/svg"
 width="640.000000pt" height="1280.000000pt" viewBox="0 0 640.000000 1280.000000"
 preserveAspectRatio="xMidYMid meet">
<metadata>
Created by potrace 1.15, written by Peter Selinger 2001-2017
</metadata>
<g transform="translate(0.000000,1280.000000) scale(0.100000,-0.100000)"
fill="#000000" stroke="none">
<path d="M3411 12789 c-183 -32 -345 -132 -446 -274 -54 -76 -119 -210 -140
-290 -17 -65 -21 -346 -6 -423 8 -41 8 -43 -25 -58 -24 -12 -38 -28 -50 -61
-23 -60 -9 -145 39 -247 42 -90 94 -149 165 -188 29 -17 59 -42 66 -57 23 -44
37 -149 43 -322 l6 -167 -24 -15 c-13 -9 -49 -21 -79 -28 -36 -7 -85 -30 -145
-69 -181 -115 -398 -229 -630 -330 -153 -66 -185 -91 -253 -192 l-56 -83 -77
-540 c-81 -564 -93 -643 -136 -865 -25 -130 -25 -144 -20 -395 7 -309 18 -424
53 -523 14 -41 32 -108 40 -149 8 -42 28 -104 44 -139 26 -54 38 -67 86 -95
55 -31 56 -31 130 -20 84 12 223 14 240 3 8 -5 -10 -120 -57 -377 l-69 -370 0
-198 0 -198 -39 -72 -40 -72 20 -25 c11 -13 19 -33 17 -45 -3 -11 -104 -154
-226 -317 l-221 -297 -156 -304 c-85 -167 -166 -335 -179 -373 -13 -38 -63
-181 -111 -319 -77 -222 -94 -281 -144 -531 -69 -334 -68 -350 4 -536 45 -115
48 -118 108 -164 117 -89 138 -94 369 -94 200 0 201 0 357 39 133 34 188 42
371 56 118 9 249 23 290 32 50 10 164 18 345 22 271 7 315 13 542 66 18 4 24
-2 38 -45 l16 -49 -109 -348 c-91 -286 -113 -368 -124 -463 -13 -101 -21 -129
-61 -213 -25 -54 -55 -111 -67 -127 -20 -28 -20 -34 -9 -110 l11 -80 -45 -43
c-24 -23 -57 -67 -72 -97 l-28 -55 22 -121 22 -121 -31 -404 c-40 -510 -36
-592 37 -750 l35 -76 101 -42 c89 -38 109 -43 153 -38 127 13 237 117 303 285
12 29 29 108 40 175 l18 122 -63 244 c-35 135 -66 270 -70 301 -6 51 -3 60 25
105 35 55 61 132 61 179 0 21 27 79 81 171 108 186 129 247 149 426 10 88 20
118 170 479 88 212 162 404 166 428 4 23 10 42 14 42 4 0 36 -34 71 -75 l64
-75 51 0 c29 0 56 -5 61 -12 6 -7 21 -96 34 -197 27 -212 42 -248 126 -302 44
-28 53 -30 110 -25 33 4 75 11 91 17 47 16 106 125 149 272 30 105 34 132 30
193 -3 41 -16 97 -29 130 -22 55 -23 63 -11 119 10 47 10 102 1 258 -9 152 -9
231 1 341 14 171 10 202 -41 326 -30 74 -49 105 -84 138 -57 52 -68 53 -243 7
-95 -25 -137 -33 -145 -25 -7 7 -10 88 -8 239 l2 228 110 444 c119 478 133
526 160 534 9 3 28 17 41 31 28 30 27 -1 8 569 -9 298 -16 379 -70 838 -32
279 -59 512 -59 517 0 6 33 10 78 10 109 0 139 11 198 72 75 77 144 201 217
388 135 342 171 465 238 802 l62 313 1 360 c1 358 -5 460 -40 684 -13 86 -20
103 -70 183 -30 48 -69 99 -86 113 -56 47 -123 75 -180 75 -54 0 -197 33 -299
68 -31 11 -135 65 -232 121 l-176 101 -85 0 -84 0 -56 47 c-47 39 -56 53 -62
89 -9 61 1 141 25 207 12 31 24 85 27 120 4 37 14 73 25 90 31 43 57 111 100
256 51 175 51 196 -3 268 l-43 56 -11 214 c-12 212 -12 214 -47 286 -43 90
-113 183 -180 241 -74 62 -198 141 -254 161 -58 20 -197 28 -272 14z m-311
-8157 c43 -21 120 -144 147 -236 12 -40 40 -91 86 -154 l67 -93 9 -117 c5 -64
8 -118 7 -119 -1 -1 -39 11 -84 28 -90 31 -212 40 -269 18 -81 -31 -122 -30
-373 6 -134 19 -245 36 -247 38 -1 2 5 29 14 61 14 49 25 65 79 112 38 34 77
80 98 117 73 130 230 328 295 373 l34 23 51 -20 c28 -11 67 -28 86 -37z"/>
</g>
</svg>
