<?xml version="1.0" encoding="iso-8859-1"?>
<!-- Uploaded to: SVG Repo, www.svgrepo.com, Generator: SVG Repo Mixer Tools -->
<svg fill="#000000" height="800px" width="800px" version="1.1" id="Capa_1" xmlns="http://www.w3.org/2000/svg" xmlns:xlink="http://www.w3.org/1999/xlink" 
	 viewBox="0 0 463 463" xml:space="preserve">
<path d="M311.5,0h-16C286.953,0,280,6.953,280,15.5V32h-97V15.5C183,6.953,176.047,0,167.5,0h-16C142.953,0,136,6.953,136,15.5v432
	c0,8.547,6.953,15.5,15.5,15.5h16c8.547,0,15.5-6.953,15.5-15.5V431h97v16.5c0,8.547,6.953,15.5,15.5,15.5h16
	c8.547,0,15.5-6.953,15.5-15.5v-432C327,6.953,320.047,0,311.5,0z M183,175h97v49h-97V175z M183,239h97v49h-97V239z M280,160h-97
	v-49h97V160z M183,303h97v49h-97V303z M280,47v49h-97V47H280z M168,447.5c0,0.276-0.224,0.5-0.5,0.5h-16c-0.276,0-0.5-0.224-0.5-0.5
	v-432c0-0.276,0.224-0.5,0.5-0.5h16c0.276,0,0.5,0.224,0.5,0.5V447.5z M183,416v-49h97v49H183z M312,447.5
	c0,0.276-0.224,0.5-0.5,0.5h-16c-0.276,0-0.5-0.224-0.5-0.5v-432c0-0.276,0.224-0.5,0.5-0.5h16c0.276,0,0.5,0.224,0.5,0.5V447.5z"/>
</svg>